<?xml version="1.0" standalone="no"?>
<!DOCTYPE svg PUBLIC "-//W3C//DTD SVG 20010904//EN"
 "http://www.w3.org/TR/2001/REC-SVG-20010904/DTD/svg10.dtd">
<svg version="1.0" xmlns="http://www.w3.org/2000/svg"
 width="512.000000pt" height="512.000000pt" viewBox="0 0 512.000000 512.000000"
 preserveAspectRatio="xMidYMid meet">
<metadata>
Created by potrace 1.14, written by Peter Selinger 2001-2017
</metadata>
<g transform="translate(0.000000,512.000000) scale(0.100000,-0.100000)"
fill="#000000" stroke="none">
<path d="M2335 4789 c-33 -20 -169 -125 -183 -141 -6 -8 -15 -35 -18 -59 -5
-41 -2 -50 57 -139 67 -101 149 -250 187 -340 34 -80 93 -253 89 -263 -1 -5
-41 -11 -87 -12 -97 -4 -206 -16 -290 -31 -14 -2 -40 -7 -59 -10 -198 -33
-467 -131 -636 -231 -373 -220 -632 -593 -719 -1035 -31 -157 -40 -258 -38
-438 3 -259 14 -360 58 -525 93 -353 280 -641 551 -848 242 -185 577 -317 919
-363 27 -3 51 -8 54 -9 31 -18 441 -26 585 -12 367 38 696 142 947 300 379
239 615 600 702 1071 20 109 26 189 28 396 1 203 -3 250 -38 450 -15 81 -75
261 -115 344 -33 68 -36 86 -12 86 41 0 155 35 233 72 155 74 241 188 245 323
3 122 -44 227 -155 348 -61 65 -205 187 -223 187 -3 0 -26 14 -51 31 -112 75
-378 179 -551 215 -259 54 -525 56 -726 4 -166 -42 -312 -141 -356 -242 -9
-21 -19 -38 -23 -38 -3 0 -6 17 -6 38 -2 193 -56 449 -136 652 -74 187 -99
220 -170 226 -24 3 -52 -1 -63 -7z"/>
</g>
</svg>
